# xmcd
#
# Track frame offsets:
# 150
# 14119
# 29445
# 43113
# 64251
# 89440
# 109670
# 133188
# 153054
# 174549
#
# Disc length: 2644 seconds
#
# Revision: 0
# Processed by: cddbd v1.5.1PL0 Copyright (c) Steve Scherf et al.
# Submitted via: Audion 3.0.2 (http://www.panic.com/audion/)
#
DISCID=860a520a
DTITLE=Delfonics - Alive and Kicking Disc 2
DYEAR=1900
DGENRE=
TTITLE0=The Phoney
TTITLE1=The Way Things Are
TTITLE2=(Sing A) Clean Song
TTITLE3=I've Got Everything
TTITLE4=Oh My Love
TTITLE5=The Same Things That Make You Laugh
TTITLE6=Men Of Action
TTITLE7=Your Name
TTITLE8=Tell Him
TTITLE9=This Time, This Time
EXTD=
EXTT0=
EXTT1=
EXTT2=
EXTT3=
EXTT4=
EXTT5=
EXTT6=
EXTT7=
EXTT8=
EXTT9=
PLAYORDER=
